<svg xmlns="http://www.w3.org/2000/svg" xmlns:xlink="http://www.w3.org/1999/xlink" id="图层_1" x="0" y="0" version="1.1" viewBox="0 0 16 16" xml:space="preserve" style="enable-background:new 0 0 16 16"><style type="text/css">.st0{fill:#2d2d30}.st1{fill:#0078d4}.st2{stroke-width:.8}.st2,.st3{fill:none;stroke:#424242}</style><title>AzureDPSservice</title><desc>Created with Sketch.</desc><g id="AzureDPSservice-"><g id="Group-43"><path id="Fill-3" d="M15.7,7.7c0-1.2-0.3-2.3-0.8-3.3c-0.1-0.4-0.3-0.8-0.6-1c-1.4-2-3.7-3.3-6.3-3.3S3.1,1.4,1.7,3.4 C1.4,3.7,1.2,4,1.1,4.5c-0.5,1-0.8,2.1-0.8,3.3c0,4,3.1,7.3,7,7.6c0.2,0.1,0.4,0.1,0.6,0.1c0.2,0,0.4,0,0.6-0.1 C12.5,15.1,15.7,11.8,15.7,7.7" class="st0"/><path id="Fill-5" d="M6.6,13.4C4,12.8,2.1,10.5,2.1,7.7c0-0.6,0.1-1.1,0.2-1.6C2.1,6.1,1.9,6,1.6,5.8 c-0.2,0.6-0.3,1.3-0.3,2c0,3.2,2.2,5.8,5.2,6.5c0-0.1,0-0.2,0-0.2C6.5,13.8,6.5,13.6,6.6,13.4" class="st1"/><path id="Fill-7" d="M13.6,6.1c0.2,0.5,0.2,1.1,0.2,1.6c0,2.7-1.9,5.1-4.5,5.7c0.1,0.2,0.1,0.4,0.1,0.6 c0,0.1,0,0.2,0,0.2c3-0.7,5.2-3.3,5.2-6.5c0-0.7-0.1-1.3-0.3-2C14.1,6,13.9,6.1,13.6,6.1" class="st1"/><path id="Fill-9" d="M3.8,3.7c1-1.1,2.5-1.8,4.2-1.8s3.2,0.7,4.2,1.8c0.2-0.2,0.4-0.4,0.6-0.5C11.7,1.9,9.9,1.1,8,1.1 S4.3,1.9,3.1,3.2C3.4,3.3,3.6,3.5,3.8,3.7" class="st1"/><path id="Stroke-21" d="M6.7,4.2l2.1,3.1" class="st2"/><path id="Stroke-23" d="M3.9,7.7l4.9-0.3" class="st2"/><path id="Stroke-25" d="M7.1,10.1l1.7-2.8" class="st3"/><path id="Stroke-27" d="M10.7,10.8L8.8,7.3" class="st2"/><g id="Stroke-29"><rect width="1" height="3.8" x="7.2" y="3.9" class="st1" transform="matrix(0.8321 -0.5547 0.5547 0.8321 -1.9218 5.2532)"/></g><g id="Stroke-31"><rect width="4.9" height="1" x="3.9" y="7" class="st1" transform="matrix(0.9975 -7.131318e-02 7.131318e-02 0.9975 -0.5185 0.4718)"/></g><g id="Stroke-33"><rect width="3.2" height="1" x="6.3" y="8.2" class="st1" transform="matrix(0.5174 -0.8557 0.8557 0.5174 -3.6629 10.9661)"/></g><g id="Stroke-35"><rect width="1" height="4" x="9.2" y="7.1" class="st1" transform="matrix(0.8763 -0.4817 0.4817 0.8763 -3.1865 5.8011)"/></g><path id="Fill-37" d="M2.6,3.6c-0.6,0-1,0.4-1,1s0.4,1,1,1s1-0.4,1-1S3.1,3.6,2.6,3.6" class="st1"/><path id="Fill-39" d="M13.4,3.6c-0.6,0-1,0.4-1,1s0.4,1,1,1s1-0.4,1-1S14,3.6,13.4,3.6" class="st1"/><path id="Fill-41" d="M8,13c-0.6,0-1,0.4-1,1s0.4,1,1,1s1-0.4,1-1S8.6,13,8,13" class="st1"/><path id="Fill-17" d="M9.8,7.3c0,0.6-0.5,1-1,1c-0.6,0-1-0.5-1-1s0.5-1,1-1S9.8,6.8,9.8,7.3" class="st1"/><path id="Fill-11" d="M7.5,4.2c0,0.5-0.4,0.9-0.9,0.9S5.7,4.7,5.7,4.2s0.4-0.9,0.9-0.9C7.1,3.3,7.5,3.7,7.5,4.2" class="st1"/><path id="Fill-13" d="M4.7,7.7c0,0.5-0.4,0.9-0.9,0.9C3.4,8.6,3,8.2,3,7.7s0.4-0.9,0.9-0.9C4.3,6.8,4.7,7.2,4.7,7.7" class="st1"/><path id="Fill-15" d="M11.5,10.8c0,0.5-0.4,0.9-0.9,0.9s-0.9-0.4-0.9-0.9s0.4-0.9,0.9-0.9 C11.2,10,11.5,10.4,11.5,10.8" class="st1"/><path id="Fill-19" d="M7.8,10.1c0,0.4-0.3,0.7-0.7,0.7c-0.4,0-0.7-0.3-0.7-0.7s0.3-0.7,0.7-0.7 C7.5,9.4,7.8,9.7,7.8,10.1" class="st1"/></g></g></svg>